<?xml version="1.0" standalone="no"?>
<!DOCTYPE svg PUBLIC "-//W3C//DTD SVG 20010904//EN"
 "http://www.w3.org/TR/2001/REC-SVG-20010904/DTD/svg10.dtd">
<svg version="1.0" xmlns="http://www.w3.org/2000/svg"
 width="1200.000000pt" height="1200.000000pt" viewBox="0 0 1200.000000 1200.000000"
 preserveAspectRatio="xMidYMid meet">
<metadata>
Created by potrace 1.11, written by Peter Selinger 2001-2013
</metadata>
<g transform="translate(0.000000,1200.000000) scale(0.100000,-0.100000)"
fill="#000000" stroke="none">
<path d="M6058 8395 c-2 -2 -50 -6 -108 -9 -58 -3 -116 -8 -130 -10 -14 -3
-52 -7 -85 -10 -52 -5 -283 -43 -370 -61 -190 -39 -458 -132 -620 -215 -85
-44 -229 -132 -245 -150 -3 -3 -27 -23 -54 -45 -155 -124 -289 -297 -354 -457
-109 -264 -112 -621 -8 -880 117 -290 326 -503 654 -668 98 -49 236 -108 304
-129 20 -7 39 -19 42 -27 11 -28 5 -31 -94 -50 -63 -13 -300 -99 -393 -142
-319 -152 -561 -376 -694 -644 -55 -111 -98 -243 -108 -328 -3 -25 -9 -71 -14
-103 -9 -67 -7 -283 3 -372 66 -548 341 -947 827 -1198 124 -63 327 -143 415
-162 10 -2 55 -13 99 -24 44 -11 91 -22 105 -24 113 -21 152 -27 195 -32 28
-4 61 -8 75 -11 157 -26 813 -25 995 1 17 3 53 7 80 10 28 3 64 8 80 10 17 3
46 7 65 10 19 2 46 7 60 10 14 3 41 8 60 11 171 30 484 124 691 209 193 79
468 224 470 249 7 72 2 375 -6 373 -16 -6 -191 -63 -285 -92 -98 -31 -369
-101 -420 -108 -19 -3 -60 -10 -90 -16 -59 -11 -114 -19 -170 -27 -19 -2 -46
-6 -60 -9 -14 -2 -50 -7 -80 -10 -30 -3 -70 -7 -89 -10 -159 -20 -665 -28
-806 -12 -417 46 -730 182 -939 408 -144 156 -219 318 -260 569 -7 39 -8 284
-2 315 2 11 9 54 16 95 17 99 61 226 117 330 25 47 48 87 52 90 4 3 15 18 25
34 35 55 158 175 232 226 75 52 194 111 309 155 56 21 66 22 111 10 100 -26
154 -28 854 -32 l715 -4 0 243 c0 134 -3 248 -7 253 -7 12 -1267 13 -1358 1
-30 -4 -76 -11 -101 -17 -41 -9 -54 -7 -125 20 -158 61 -318 180 -421 313 -72
94 -158 271 -178 368 -2 8 -8 35 -13 60 -52 232 -16 574 76 730 92 154 190
258 317 336 100 62 272 129 375 149 19 3 42 7 50 9 8 1 38 6 65 10 28 4 61 10
75 13 65 12 382 10 490 -3 224 -28 492 -102 664 -182 l83 -39 163 -324 c89
-178 166 -329 171 -334 9 -12 264 -14 275 -2 4 4 9 263 10 576 l3 569 -22 5
c-12 3 -76 19 -142 35 -213 54 -453 96 -718 127 -260 30 -376 37 -654 40 -134
1 -244 1 -245 0z"/>
</g>
</svg>
